# xmcd
# 
# Track frame offsets:
#     150
#     27900
#     49802
#     72647
#     86442
#     102942
#     128050
#     140203
#     162042
#     180942
#     192606
#     207979
#     218446
#     229066
#     240468
#     243281
#     256928
#     271598
#     278088
#     293465
#     305321
#     317177
#     328845
#     333645
#     339120
# 
# Disc length: 4752
# 
# Revision: 1
# Processed by: cddbd v1.5.2PL0 Copyright (c) Steve Scherf et al.
# Submitted via: fre:ac v1.0.17
# 
DISCID=67128e19
DTITLE=M A Numminen - Diverse
DYEAR=0
DGENRE=Alt. Rock
TTITLE0=0
TTITLE1=1
TTITLE2=2
TTITLE3=3
TTITLE4=4
TTITLE5=5
TTITLE6=6
TTITLE7=7
TTITLE8=M. A. Numminen - Ooa hela natten
TTITLE9=Poliisilaulu                  
TTITLE10=Slå mig med din rytmenpinne
TTITLE11=M. A. Numminen - Tunnelmassa
TTITLE12=Om och om och om och om igen
TTITLE13=M A Numinen Stefan Sundström - Köttbullar i näsan
TTITLE14=M A Numminen - Perkele
TTITLE15=M A Numminen - Uppå källarbacken
TTITLE16=Itsy bitsy
TTITLE17=Sauna
TTITLE18=Kriminaltango
TTITLE19=Kumipallo
TTITLE20=Kumipallo                     
TTITLE21=poliisi ja rosvo
TTITLE22=AudioTrack 29                 
TTITLE23=M A Numinen - Wovonmannichtsprechenkann
TTITLE24=M A Numinen - Yes Sir, olen boogie
EXTD=
EXTT0=
EXTT1=
EXTT2=
EXTT3=
EXTT4=
EXTT5=
EXTT6=
EXTT7=
EXTT8=
EXTT9=
EXTT10=
EXTT11=
EXTT12=
EXTT13=
EXTT14=
EXTT15=
EXTT16=
EXTT17=
EXTT18=
EXTT19=
EXTT20=
EXTT21=
EXTT22=
EXTT23=
EXTT24=
PLAYORDER=
